<svg width="195" height="90" viewBox="0 0 195 90" fill="none" xmlns="http://www.w3.org/2000/svg">
  <rect width="195" height="90" fill="#F9F9F9"/>
  <path d="M118.5 39.25H102.75V23.5C102.75 21.5673 101.183 20 99.25 20H95.75C93.8173 20 92.25 21.5673 92.25 23.5V39.25H76.5C74.5673 39.25 73 40.8173 73 42.75V46.25C73 48.1827 74.5673 49.75 76.5 49.75H92.25V65.5C92.25 67.4327 93.8173 69 95.75 69H99.25C101.183 69 102.75 67.4327 102.75 65.5V49.75H118.5C120.433 49.75 122 48.1827 122 46.25V42.75C122 40.8173 120.433 39.25 118.5 39.25Z" fill="#C2C2C2"/>
</svg>
