<svg width="196" height="90" viewBox="0 0 196 90" fill="none" xmlns="http://www.w3.org/2000/svg">
  <rect width="196" height="90" fill="#FFBA53"/>
  <circle cx="102" cy="24" r="4" fill="#917618"/>
  <rect x="88" y="39" width="28" height="23" fill="#FF2121"/>
  <g filter="url(#filter0_d)">
    <path d="M117.75 24.625H109C109 20.9709 105.861 18 102 18C98.1391 18 95 20.9709 95 24.625H86.25C83.3516 24.625 81 26.8506 81 29.5938V66.0312C81 68.7744 83.3516 71 86.25 71H117.75C120.648 71 123 68.7744 123 66.0312V29.5938C123 26.8506 120.648 24.625 117.75 24.625ZM102 22.1406C103.455 22.1406 104.625 23.2482 104.625 24.625C104.625 26.0018 103.455 27.1094 102 27.1094C100.545 27.1094 99.375 26.0018 99.375 24.625C99.375 23.2482 100.545 22.1406 102 22.1406ZM112.5 53.6094C112.5 54.0648 112.106 54.4375 111.625 54.4375H105.5V60.2344C105.5 60.6898 105.106 61.0625 104.625 61.0625H99.375C98.8937 61.0625 98.5 60.6898 98.5 60.2344V54.4375H92.375C91.8938 54.4375 91.5 54.0648 91.5 53.6094V48.6406C91.5 48.1852 91.8938 47.8125 92.375 47.8125H98.5V42.0156C98.5 41.5602 98.8937 41.1875 99.375 41.1875H104.625C105.106 41.1875 105.5 41.5602 105.5 42.0156V47.8125H111.625C112.106 47.8125 112.5 48.1852 112.5 48.6406V53.6094ZM112.5 33.7344C112.5 34.1898 112.106 34.5625 111.625 34.5625H92.375C91.8938 34.5625 91.5 34.1898 91.5 33.7344V32.0781C91.5 31.6227 91.8938 31.25 92.375 31.25H111.625C112.106 31.25 112.5 31.6227 112.5 32.0781V33.7344Z" fill="url(#paint0_linear)"/>
  </g>
  <defs>
    <filter id="filter0_d" x="77" y="18" width="50" height="61" filterUnits="userSpaceOnUse" color-interpolation-filters="sRGB">
      <feFlood flood-opacity="0" result="BackgroundImageFix"/>
      <feColorMatrix in="SourceAlpha" type="matrix" values="0 0 0 0 0 0 0 0 0 0 0 0 0 0 0 0 0 0 127 0"/>
      <feOffset dy="4"/>
      <feGaussianBlur stdDeviation="2"/>
      <feColorMatrix type="matrix" values="0 0 0 0 0 0 0 0 0 0 0 0 0 0 0 0 0 0 0.25 0"/>
      <feBlend mode="normal" in2="BackgroundImageFix" result="effect1_dropShadow"/>
      <feBlend mode="normal" in="SourceGraphic" in2="effect1_dropShadow" result="shape"/>
    </filter>
    <linearGradient id="paint0_linear" x1="102" y1="18" x2="102" y2="71" gradientUnits="userSpaceOnUse">
      <stop stop-color="white"/>
      <stop offset="1" stop-color="#FFE8D3"/>
    </linearGradient>
  </defs>
</svg>
