<svg width="196" height="90" viewBox="0 0 196 90" fill="none" xmlns="http://www.w3.org/2000/svg">
<rect width="196" height="90" fill="#5398FF"/>
<g filter="url(#filter0_d)">
<path d="M114.333 23.7H104.58C103.6 20.974 101.033 19 98 19C94.9667 19 92.4 20.974 91.42 23.7H81.6667C79.1 23.7 77 25.815 77 28.4V61.3C77 63.885 79.1 66 81.6667 66H114.333C116.9 66 119 63.885 119 61.3V28.4C119 25.815 116.9 23.7 114.333 23.7ZM98 23.7C99.2833 23.7 100.333 24.7575 100.333 26.05C100.333 27.3425 99.2833 28.4 98 28.4C96.7167 28.4 95.6667 27.3425 95.6667 26.05C95.6667 24.7575 96.7167 23.7 98 23.7ZM102.667 56.6H86.3333V51.9H102.667V56.6ZM109.667 47.2H86.3333V42.5H109.667V47.2ZM109.667 37.8H86.3333V33.1H109.667V37.8Z" fill="url(#paint0_linear)"/>
</g>
<defs>
<filter id="filter0_d" x="73" y="19" width="50" height="55" filterUnits="userSpaceOnUse" color-interpolation-filters="sRGB">
<feFlood flood-opacity="0" result="BackgroundImageFix"/>
<feColorMatrix in="SourceAlpha" type="matrix" values="0 0 0 0 0 0 0 0 0 0 0 0 0 0 0 0 0 0 127 0"/>
<feOffset dy="4"/>
<feGaussianBlur stdDeviation="2"/>
<feColorMatrix type="matrix" values="0 0 0 0 0 0 0 0 0 0 0 0 0 0 0 0 0 0 0.25 0"/>
<feBlend mode="normal" in2="BackgroundImageFix" result="effect1_dropShadow"/>
<feBlend mode="normal" in="SourceGraphic" in2="effect1_dropShadow" result="shape"/>
</filter>
<linearGradient id="paint0_linear" x1="98" y1="19" x2="98" y2="66" gradientUnits="userSpaceOnUse">
<stop stop-color="white"/>
<stop offset="1" stop-color="#BDD8FF"/>
</linearGradient>
</defs>
</svg>
