<svg xmlns="http://www.w3.org/2000/svg" xmlns:xlink="http://www.w3.org/1999/xlink" width="19" height="19" viewBox="0 0 19 19">
  <defs>
    <path id="location_category_bike-a" d="M15.3916349,8.23600102 C14.5927625,8.23899121 13.8153531,8.49815502 13.1709347,8.97631251 L12.4491304,8.13646334 L12.6272778,7.73209151 L13.0726464,7.73209151 C13.2196906,7.73209152 13.3555649,7.65264722 13.429087,7.5236845 C13.502609,7.39472179 13.502609,7.23583317 13.429087,7.10687046 C13.3555649,6.97790774 13.2196906,6.89846344 13.0726464,6.89846345 L11.2911719,6.89846345 C11.0638614,6.89846345 10.8795898,7.08507744 10.8795898,7.31527748 C10.8795898,7.54547751 11.0638614,7.73209151 11.2911719,7.73209151 L11.721183,7.73209151 L10.9840211,9.36824213 L8.43774111,9.36824213 L6.28768562,6.83003129 L7.35657035,4.03053405 L7.91251327,4.03053405 L9.01825609,4.50022747 C9.22414295,4.56851135 9.44705172,4.46347105 9.5280707,4.25998981 C9.60908969,4.05650857 9.52047798,3.82425839 9.32540688,3.72881045 L8.17973445,3.23112205 C8.12906808,3.21009767 8.07476859,3.19952272 8.02001604,3.20001653 L5.72252818,3.20001653 C5.57548407,3.20001652 5.43960971,3.27946083 5.36608765,3.40842354 C5.29256559,3.53738626 5.29256559,3.69627487 5.36608765,3.82523759 C5.43960971,3.9542003 5.57548407,4.0336446 5.72252818,4.0336446 L6.49040514,4.0336446 L4.83793392,8.36975477 C2.88369961,7.82153223 0.847211077,8.91612865 0.200318211,10.8624364 C-0.446574655,12.8087442 0.521849704,14.9276344 2.40567314,15.6877023 C4.28949657,16.4477702 6.43139298,15.5838038 7.28333009,13.7202254 C8.1352672,11.856647 7.39997696,9.64371858 5.60888239,8.68081002 L5.9682488,7.74764428 L9.71548837,12.1832921 L9.40833759,12.8365082 L8.79403602,12.8365082 C8.56672553,12.8365082 8.38245397,13.0231222 8.38245397,13.2533222 C8.38245397,13.4835222 8.56672553,13.6701362 8.79403602,13.6701362 L9.66327274,13.6701362 C9.71171324,13.6701406 9.75969508,13.6606335 9.8045621,13.6421413 L9.84142019,13.6234779 C9.87492563,13.6086404 9.90599851,13.5887108 9.93356543,13.5643774 C9.94251178,13.5568849 9.95073904,13.5485531 9.95813749,13.539493 C9.99055187,13.506777 10.0175207,13.4689609 10.0379967,13.4275131 L10.4403642,12.531674 L11.5553216,12.531674 C11.7749779,14.6067076 13.5753048,16.1345589 15.6311243,15.9906126 C17.6869437,15.8466663 19.2625132,14.0824383 19.1980933,11.9965352 C19.1336733,9.91063207 17.4523187,8.24956267 15.3916349,8.23600102 Z M6.86205759,12.11486 C6.86329983,13.3483642 6.13037364,14.461051 5.00530631,14.933674 C3.88023898,15.4062969 2.58480641,15.1456915 1.72353512,14.2734719 C0.862263832,13.4012522 0.604929625,12.0893522 1.07162007,10.9499832 C1.53831052,9.81061412 2.6370305,9.06837105 3.85505141,9.06962909 C4.08581495,9.07055425 4.31568408,9.09873973 4.53999766,9.153614 L3.54175761,11.7758098 C3.46051769,11.9905437 3.56634759,12.2313399 3.77826371,12.3139353 C3.82533728,12.3321995 3.87528656,12.3416841 3.92569609,12.3419303 C4.09346566,12.3455658 4.24610935,12.2441586 4.30963457,12.086865 L5.31094613,9.46466925 C6.26363459,9.99852471 6.85693402,11.0122215 6.86205759,12.11486 Z M14.473254,11.6980459 L12.4122723,11.6980459 C12.4936176,11.1241165 12.7331496,10.5850568 13.1033615,10.1427697 L14.473254,11.6980459 Z M10.0932838,11.3465535 L9.14111641,10.2205335 L10.6062256,10.2205335 L10.0932838,11.3465535 Z M10.8427318,11.6980459 L12.0713349,8.96698085 L12.5504901,9.51443809 C12.0073458,10.1181062 11.6665518,10.8802145 11.5768221,11.6918248 L10.8427318,11.6980459 Z M15.3916349,15.1632014 C13.8896853,15.160617 12.6189607,14.0382472 12.4122723,12.531674 L15.3916349,12.531674 C15.5535969,12.5314601 15.7003783,12.4350716 15.7666489,12.2854095 C15.8329195,12.1357475 15.8063577,11.9606384 15.6987857,11.8380208 L13.7084486,9.59842301 C14.7792218,8.87383678 16.1867394,8.92021859 17.2087336,9.71376761 C18.2307279,10.5073166 18.6402814,11.8718381 18.2272318,13.1071277 C17.8141822,14.3424173 16.6702404,15.1741988 15.3824203,15.1756436 L15.3916349,15.1632014 Z"/>
  </defs>
  <g fill="none" fill-rule="evenodd">
    <mask id="location_category_bike-b" fill="#000">
      <use xlink:href="#location_category_bike-a"/>
    </mask>
    <use fill="#000" fill-rule="nonzero" xlink:href="#location_category_bike-a"/>
    <g fill="#000" mask="url(#location_category_bike-b)">
      <rect width="19" height="19"/>
    </g>
  </g>
</svg>
