<svg xmlns="http://www.w3.org/2000/svg" xmlns:xlink="http://www.w3.org/1999/xlink" width="24" height="24" viewBox="0 0 24 24">
  <defs>
    <path id="location_category_health-a" d="M18.2770919,9.59122085 C18.9875683,9.60913045 19.5532804,10.1919115 19.5500686,10.9026063 L19.5500686,13.1412894 C19.5470472,13.8573432 18.9657172,14.4362204 18.2496571,14.436214 L14.8532236,14.436214 C14.5999101,14.439177 14.3952813,14.6438058 14.3923182,14.8971193 L14.3923182,18.260631 C14.3923246,18.9766911 13.8134474,19.5580212 13.0973937,19.5610425 L10.9026063,19.5610425 C10.5494819,19.5595954 10.2114784,19.4175493 9.96332893,19.1663108 C9.71517946,18.9150723 9.57732554,18.5753375 9.58024691,18.2222222 L9.58024691,14.8861454 C9.57728388,14.6328319 9.37265508,14.4282031 9.11934156,14.4252401 L5.7558299,14.4252401 C5.40271342,14.4266992 5.06355918,14.287446 4.81335169,14.0382681 C4.56314421,13.7890903 4.42249356,13.4505132 4.42249657,13.0973937 L4.42249657,10.9026063 C4.43447834,10.174812 5.02793695,9.59112223 5.7558299,9.59122085 L9.14677641,9.59122085 C9.39919991,9.59123874 9.60467671,9.38820809 9.60768176,9.13580247 L9.60768176,5.739369 C9.60767538,5.0233089 10.1865526,4.44197883 10.9026063,4.43895748 L13.0973937,4.43895748 C13.4495614,4.44040971 13.786728,4.58170208 14.0347191,4.83175124 C14.2827102,5.0818004 14.4212113,5.42012315 14.4197531,5.77229081 L14.4197531,9.13580247 C14.4227581,9.38820809 14.6282349,9.59123874 14.8806584,9.59122085 L18.2770919,9.59122085 Z M18.1015089,12.9657064 L18.1015089,11.0672154 L14.8806584,11.0672154 C13.8152195,11.0642014 12.9522595,10.2012414 12.9492455,9.13580247 L12.9492455,5.90946502 L11.0507545,5.90946502 L11.0507545,9.13580247 C11.0477405,10.2012414 10.1847805,11.0642014 9.11934156,11.0672154 L5.89849108,11.0672154 L5.89849108,12.9657064 L9.11934156,12.9657064 C10.1847805,12.9687204 11.0477405,13.8316804 11.0507545,14.8971193 L11.0507545,18.090535 L12.9492455,18.090535 L12.9492455,14.8971193 C12.9522595,13.8316804 13.8152195,12.9687204 14.8806584,12.9657064 L18.1015089,12.9657064 Z M12,1.77635684e-15 C18.6249093,0.00605014929 23.9939499,5.37509067 24,12 C24,18.627417 18.627417,24 12,24 C5.372583,24 -1.73005947e-16,18.627417 1.77635684e-15,12 C3.72571963e-15,5.372583 5.372583,-1.73005947e-16 12,1.77635684e-15 Z M12,22.5294925 C17.8127708,22.5234438 22.5234438,17.8127708 22.5294925,12 C22.5294925,6.18472189 17.8152781,1.47050754 12,1.47050754 C6.18472189,1.47050754 1.47050754,6.18472189 1.47050754,12 C1.47050754,17.8152781 6.18472189,22.5294925 12,22.5294925 Z"/>
  </defs>
  <g fill="none" fill-rule="evenodd">
    <mask id="location_category_health-b" fill="#000">
      <use xlink:href="#location_category_health-a"/>
    </mask>
    <use fill="#000" fill-rule="nonzero" xlink:href="#location_category_health-a"/>
    <g fill="#000" mask="url(#location_category_health-b)">
      <rect width="24" height="24"/>
    </g>
  </g>
</svg>
