<svg xmlns="http://www.w3.org/2000/svg" xmlns:xlink="http://www.w3.org/1999/xlink" width="24" height="24" viewBox="0 0 24 24">
  <defs>
    <path id="location_category_information-a" d="M14.372093,16.2865126 C14.7851506,16.2865126 15.12,16.621362 15.12,17.0344196 C15.12,17.4474773 14.7851506,17.7823266 14.372093,17.7823266 L9.94604652,17.7823266 C9.5329889,17.7823266 9.19813954,17.4474773 9.19813954,17.0344196 C9.19813954,16.621362 9.5329889,16.2865126 9.94604652,16.2865126 L11.5144186,16.2865126 L11.5144186,9.9572099 L9.94604652,9.9572099 C9.55646792,9.92358684 9.25734803,9.59753905 9.25734803,9.20651218 C9.25734803,8.81548531 9.55646792,8.48943752 9.94604652,8.45581446 L12.2623256,8.45581446 C12.6762844,8.45888091 13.0102439,8.79533268 13.0102326,9.20930288 L13.0102326,16.2865126 L14.372093,16.2865126 Z M11.9944186,0 C18.6214644,0.00307662145 23.9938417,5.37295669 24,12.0000007 C23.9999993,18.6266914 18.6285498,23.9989731 12.0018596,24 C5.37516941,24.0010269 0.00205513817,18.6304103 5.893761e-07,12.0037199 C-0.00205395942,5.37702956 5.36772905,0.00308218171 11.9944186,0 Z M11.9944186,22.5041874 C17.79317,22.4980349 22.4924521,17.7987525 22.4986047,12.0000007 C22.4986047,6.19869861 17.7957204,1.49581404 11.9944186,1.49581404 C6.19311685,1.49581404 1.49023257,6.19869861 1.49023257,12.0000007 C1.49023257,17.8013028 6.19311685,22.5041874 11.9944186,22.5041874 Z M12.2623256,7.69674465 C11.8585155,7.69674465 11.5311628,7.3693919 11.5311628,6.96558181 C11.5311628,6.56177173 11.8585155,6.23441898 12.2623256,6.23441898 C12.6661356,6.23441898 12.9934884,6.56177173 12.9934884,6.96558181 C12.9934884,7.3693919 12.6661356,7.69674465 12.2623256,7.69674465 Z"/>
  </defs>
  <g fill="none" fill-rule="evenodd">
    <mask id="location_category_information-b" fill="#000">
      <use xlink:href="#location_category_information-a"/>
    </mask>
    <use fill="#000" xlink:href="#location_category_information-a"/>
    <g fill="#000" mask="url(#location_category_information-b)">
      <rect width="24" height="24"/>
    </g>
  </g>
</svg>
