<svg xmlns="http://www.w3.org/2000/svg" xmlns:xlink="http://www.w3.org/1999/xlink" width="24" height="24" viewBox="0 0 24 24">
  <defs>
    <path id="location_category_library-a" d="M21.8342629,4.40877575 C23.0294821,4.40877575 24,5.22330287 24,6.22836264 L24,19.0131041 C24,20.0181638 23.0294821,20.8374543 21.8342629,20.8374543 L6.43027888,20.8374543 L6.43027888,22.3617156 C6.4302789,22.5897526 6.30817409,22.8004676 6.10996017,22.9144861 C5.91174625,23.0285046 5.66753662,23.0285046 5.4693227,22.9144861 C5.27110878,22.8004676 5.14900397,22.5897526 5.14900398,22.3617156 L5.14900398,20.8374543 L2.16573705,20.8374543 C0.956175299,20.8374543 -7.22977234e-13,20.0181638 -7.22977234e-13,19.0131041 L-7.22977234e-13,6.23312596 C-7.22977234e-13,5.22806618 0.970517928,4.40877575 2.16573705,4.40877575 L2.4,4.40877575 L2.4,3.82288782 C2.40377962,3.29739858 2.63778947,2.79977922 3.04063745,2.46057931 C3.47248718,2.09065658 4.04735046,1.93175288 4.60876494,2.02711751 L12,3.56090541 L19.3625498,2.02711751 C19.9349471,1.93621803 20.5185704,2.09986799 20.9593625,2.47486926 C21.3622105,2.81406917 21.5962204,3.31168853 21.6,3.83717777 L21.6,4.40877575 L21.8342629,4.40877575 Z M5.14900398,19.5561221 L5.14900398,19.3846428 L4.00159363,19.2179267 C3.09403349,19.0954104 2.41300615,18.32979 2.4,17.417393 L2.4,5.68534456 L2.16573705,5.68534456 C1.65896414,5.68534456 1.2812749,5.97114355 1.2812749,6.22836264 L1.2812749,19.0131041 C1.2812749,19.2703232 1.65896414,19.5561221 2.16573705,19.5561221 L5.14900398,19.5561221 Z M11.3641434,19.3608262 L11.3593625,4.73268127 L4.37928287,3.30368632 L4.29322709,3.30368632 C4.13944392,3.30408987 3.99063314,3.35800413 3.87250996,3.45611245 C3.75949885,3.54943894 3.69169677,3.68627715 3.68605578,3.83241445 L3.68605578,17.3983398 C3.69885931,17.6767586 3.91451079,17.9037798 4.19282869,17.9318312 C6.61017748,18.2626107 9.00505267,18.7398265 11.3641434,19.3608262 Z M12.6454183,4.73268127 L12.6693227,19.3798794 C15.0282385,18.7581284 17.4231601,18.2809033 19.8406375,17.9508845 C20.1076472,17.9100357 20.3081186,17.6863325 20.3187251,17.417393 L20.3187251,3.8467044 C20.3160155,3.69475525 20.246012,3.55177526 20.12749,3.45611245 C19.9821214,3.32925745 19.7876505,3.2733997 19.5968127,3.30368632 L12.6454183,4.73268127 Z M22.723506,19.0226307 L22.7187251,6.22836264 C22.7187251,5.97114355 22.3410359,5.68534456 21.8342629,5.68534456 L21.6,5.68534456 L21.6,17.4269197 C21.5897376,18.3343364 20.914905,19.0978226 20.012749,19.22269 C19.263745,19.327483 18.5227092,19.4418026 17.7896414,19.5656488 L21.8390438,19.5656488 C22.3458167,19.5656488 22.723506,19.2798498 22.723506,19.0226307 Z M18.7649402,5.54244507 C19.105363,5.48030686 19.434387,5.69674914 19.510757,6.03306667 C19.5881362,6.37365603 19.3743008,6.71240544 19.0326693,6.79043399 L14.012749,7.87170683 C13.7865025,7.92575421 13.54863,7.85334344 13.3913353,7.68254224 C13.2340405,7.51174105 13.1820517,7.26940098 13.2555206,7.04945742 C13.3289895,6.82951386 13.5163661,6.666544 13.7450199,6.62371791 L18.7649402,5.54244507 Z M18.7649402,9.55315754 L18.7792829,9.53886759 C19.1209355,9.47487719 19.4514652,9.69404075 19.524128,10.0327504 C19.5967909,10.3714601 19.3850677,10.7060993 19.047012,10.7868565 L14.0270916,11.8681294 C13.6857249,11.9424698 13.3475333,11.7305519 13.2669323,11.3917977 C13.1895531,11.0512083 13.4033884,10.7124589 13.7450199,10.6344304 L18.7649402,9.55315754 Z M18.7649402,13.6257931 L18.7649402,13.6400831 C18.9911867,13.5860357 19.2290592,13.6584465 19.3863539,13.8292477 C19.5436487,14.0000489 19.5956375,14.2423889 19.5221686,14.4623325 C19.4486997,14.6822761 19.2613231,14.8452459 19.0326693,14.888072 L14.0270916,15.9407649 C13.6857249,16.0151054 13.3475333,15.8031875 13.2669323,15.4644333 C13.1895531,15.1238439 13.4033884,14.7850945 13.7450199,14.707066 L18.7649402,13.6257931 Z M4.96733068,6.79043399 C4.62143761,6.71545882 4.40203932,6.37530763 4.47729086,6.03068501 C4.55254241,5.6860624 4.89394757,5.46746993 5.23984064,5.54244507 L10.259761,6.62371791 C10.4884147,6.666544 10.6757914,6.82951386 10.7492603,7.04945742 C10.8227292,7.26940098 10.7707403,7.51174105 10.6134456,7.68254224 C10.4561508,7.85334344 10.2182784,7.92575421 9.99203187,7.87170683 L4.96733068,6.79043399 Z M4.96733068,10.8011465 C4.74357709,10.752646 4.5627903,10.5888971 4.49307094,10.3715824 C4.42335159,10.1542676 4.47529169,9.91640226 4.62932592,9.74758791 C4.78336015,9.57877356 5.01608705,9.50465713 5.23984064,9.55315754 L10.259761,10.6344304 C10.5978167,10.7151875 10.8095399,11.0498268 10.736877,11.3885365 C10.6642142,11.7272461 10.3336845,11.9464097 9.99203187,11.8824193 L4.96733068,10.8011465 Z M4.96733068,14.888072 C4.74101502,14.8395716 4.55786079,14.6744608 4.4868604,14.4549354 C4.41586001,14.23541 4.46780012,13.994821 4.62311538,13.823796 C4.77843065,13.652771 5.01352498,13.5772927 5.23984064,13.6257931 L10.259761,14.707066 C10.4884147,14.7498921 10.6757914,14.9128619 10.7492603,15.1328055 C10.8227292,15.352749 10.7707403,15.5950891 10.6134456,15.7658903 C10.4561508,15.9366915 10.2182784,16.0091023 9.99203187,15.9550549 L4.96733068,14.888072 Z"/>
  </defs>
  <g fill="none" fill-rule="evenodd">
    <mask id="location_category_library-b" fill="#fff" style="fill:#fff">
      <use xlink:href="#location_category_library-a"/>
    </mask>
    <g fill="#000" style="fill:#000" mask="url(#location_category_library-b)">
      <rect width="24" height="24"/>
    </g>
  </g>
</svg>
