<svg xmlns="http://www.w3.org/2000/svg" xmlns:xlink="http://www.w3.org/1999/xlink" width="24" height="24" viewBox="0 0 24 24">
  <defs>
    <path id="location_category_accessability-a" d="M15.200922,14.3496387 C15.3870879,14.3495087 15.5652859,14.4253638 15.6944925,14.5597412 C15.823699,14.6941186 15.8927808,14.8754394 15.8858343,15.0619611 C15.8717306,19.4568067 12.3093353,23.0094007 7.92591382,22.9999813 C3.54249234,22.9905619 -0.00468147827,19.4226903 4.63772011e-06,15.0278244 C0.00469075371,10.6329585 3.55946509,7.07269909 7.94289664,7.07267634 C8.20265741,7.05019888 8.45287315,7.17643569 8.5896616,7.39897695 C8.72645005,7.62151821 8.72645005,7.90235762 8.5896616,8.12489888 C8.45287315,8.34744015 8.20265741,8.47367696 7.94289664,8.45119949 C4.31533179,8.45121709 1.37356819,11.3976234 1.3698188,15.034651 C1.36606941,18.6716786 4.30175186,21.6241756 7.92930892,21.6317115 C11.556866,21.6392475 14.5047265,18.698973 14.5160098,15.0619611 C14.5090632,14.8754394 14.578145,14.6941186 14.7073516,14.5597412 C14.8365581,14.4253638 15.0147561,14.3495087 15.200922,14.3496387 Z M23.3125321,17.6242718 C23.6922101,17.6242718 24,17.9328647 24,18.3135333 C24,18.694202 23.6922101,19.0027949 23.3125321,19.0027949 L20.9000054,19.0027949 C20.5917456,18.9990643 20.3239592,18.7893103 20.2457608,18.4903328 L18.6152607,12.802003 L11.5412416,12.802003 C11.2310757,12.8005754 10.9605822,12.5903434 10.8818858,12.2895409 L8.11156906,2.37339853 L3.51141212,2.37339853 C3.13314552,2.37339853 2.82649986,2.0659528 2.82649986,1.68669927 C2.82649986,1.30744573 3.13314552,1 3.51141212,1 L8.62269761,1 C8.93286353,1.00142768 9.20335705,1.21165967 9.28205343,1.51246214 L10.8409955,7.07267634 L14.878911,7.07267634 C15.2356762,7.10354773 15.5096018,7.40291219 15.5096018,7.76193792 C15.5096018,8.12096364 15.2356762,8.4203281 14.878911,8.45119949 L11.2243419,8.45119949 L12.067704,11.4234799 L19.1315006,11.4234799 C19.4410589,11.4266664 19.7106126,11.636168 19.7908564,11.935942 L21.4162452,17.6242718 L23.3125321,17.6242718 Z"/>
  </defs>
  <g fill="none" fill-rule="evenodd">
    <mask id="location_category_accessability-b" fill="#fff">
      <use xlink:href="#location_category_accessability-a"/>
    </mask>
    <use fill="#000" xlink:href="#location_category_accessability-a"/>
    <g fill="#FFF" mask="url(#location_category_accessability-b)">
      <rect width="24" height="24"/>
    </g>
  </g>
</svg>
