<svg xmlns="http://www.w3.org/2000/svg" xmlns:xlink="http://www.w3.org/1999/xlink" width="24" height="24" viewBox="0 0 24 24">
  <defs>
    <path id="location_category_dining-a" d="M6.96877112,1.09090909 C9.42898637,1.09090909 11.4322286,3.67122464 11.4375422,6.84117205 C11.5043515,8.79574411 10.6468037,10.6644747 9.13142254,11.8665665 L9.13142254,21.8362134 C9.13142254,23.0312397 8.1798235,24 7.0059666,24 C5.83210969,24 4.88051065,23.0312397 4.88051065,21.8362134 L4.88051065,11.9152517 C3.42457333,10.9307288 2.5,9.00495868 2.5,6.84117205 C2.5,3.67122464 4.50324223,1.09090909 6.96877112,1.09090909 Z M8.07400821,10.8279489 L8.06338093,10.8441773 C9.2323817,10.1950413 10.0081731,8.58842975 10.0719368,6.86821938 C10.0719368,4.46641623 8.71164499,2.54064613 7.0325348,2.54064613 C5.3534246,2.54064613 3.98781916,4.46641623 3.98781916,6.84117205 C3.98781916,8.62629602 4.79017878,10.249136 5.98574774,10.8766341 C6.01289101,10.8953187 6.03784967,10.9170977 6.0601387,10.9415477 C6.1053379,10.9677407 6.14651486,11.0005473 6.18235242,11.0389181 C6.20892062,11.0713749 6.23017518,11.1092412 6.25674338,11.1471074 C6.28007393,11.1874426 6.30135646,11.2289698 6.32050706,11.2715252 C6.33366258,11.3196025 6.3443048,11.3683561 6.35238889,11.4175808 C6.35495023,11.4517911 6.35495023,11.4861503 6.35238889,11.5203606 L6.35238889,21.8362134 C6.38401784,22.2051039 6.68739904,22.4881718 7.05113254,22.4881718 C7.41486603,22.4881718 7.71824723,22.2051039 7.74987618,21.8362134 L7.74987618,11.466266 C7.74739885,11.4338582 7.74739885,11.4013034 7.74987618,11.3688956 C7.74481826,11.3203465 7.74481826,11.271389 7.74987618,11.22284 C7.76581803,11.1804511 7.78726312,11.1404261 7.81363985,11.1038317 C7.83213065,11.0620578 7.8572652,11.023676 7.88803081,10.9902329 C7.92134829,10.9534352 7.95880098,10.9207539 7.99961725,10.8928625 C8.02190628,10.8684125 8.04686495,10.8466335 8.07400821,10.8279489 Z M20.7779109,1.09090909 C21.177586,1.09388307 21.5000104,1.41777838 21.4999993,1.81629146 L21.4999993,9.56813886 C21.5008351,10.7233531 20.7487473,11.7451201 19.6432007,12.0907372 L19.6432007,21.8346795 C19.6432007,23.030553 18.6709,24 17.4715064,24 C16.2721127,24 15.2998121,23.030553 15.2998121,21.8346795 L15.2998121,11.9932978 C14.3154857,11.5732002 13.6769595,10.6086402 13.6764706,9.54107235 L13.6764706,1.81629146 C13.6764706,1.41567384 14.0021913,1.09090909 14.4039882,1.09090909 C14.805785,1.09090909 15.1315058,1.41567384 15.1315058,1.81629146 L15.1315058,9.54107235 C15.1333687,10.1394347 15.5745737,10.6461374 16.1684898,10.7319986 C16.5415085,10.784929 16.8110116,11.1149264 16.7874227,11.4898608 L16.7874227,21.8346795 C16.8197397,22.2038315 17.1297208,22.4871001 17.5013672,22.4871001 C17.8730135,22.4871001 18.1829947,22.2038315 18.2153117,21.8346795 L18.2153117,11.4736209 C18.2122587,11.4321747 18.2122587,11.3905611 18.2153117,11.349115 C18.2229978,11.2997458 18.233879,11.2509242 18.2478871,11.2029558 C18.2661823,11.162072 18.2899229,11.1238344 18.3184672,11.0892765 C18.3385667,11.0452184 18.3661142,11.004934 18.3999057,10.9701839 C18.4300773,10.9419826 18.462791,10.9166133 18.4976319,10.8943977 C18.5377013,10.8623011 18.5814394,10.8350451 18.6279336,10.8131981 C18.6678492,10.7966607 18.7098747,10.7857297 18.752806,10.7807183 C18.7981929,10.763653 18.8456688,10.7527291 18.8939661,10.7482385 C19.5413354,10.7192649 20.0510452,10.1871912 20.0503934,9.54107235 L20.0503934,1.81629146 C20.0503934,1.41567384 20.3761141,1.09090909 20.7779109,1.09090909 Z M17.5863526,9.81816028 C17.4350761,9.81830648 17.2902742,9.73298887 17.1852822,9.58184866 C17.0802903,9.43070845 17.0241551,9.226769 17.0297998,9.0169798 L17.0297998,0.711216639 C17.0548203,0.30890012 17.2974478,0 17.5884293,0 C17.8794108,0 18.1220383,0.30890012 18.1470588,0.711216639 L18.1470588,9.04579924 C18.147063,9.2516447 18.0878565,9.44897633 17.9825826,9.59398896 C17.8773087,9.73900158 17.7346779,9.81969644 17.5863526,9.81816028 Z"/>
  </defs>
  <g fill="none" fill-rule="evenodd" transform="translate(-.15)">
    <mask id="location_category_dining-b" fill="#fff">
      <use xlink:href="#location_category_dining-a"/>
    </mask>
    <use fill="#000" fill-rule="nonzero" xlink:href="#location_category_dining-a"/>
    <g fill="#FFF" mask="url(#location_category_dining-b)">
      <rect width="24" height="24"/>
    </g>
  </g>
</svg>
