<svg xmlns="http://www.w3.org/2000/svg" xmlns:xlink="http://www.w3.org/1999/xlink" width="24" height="24" viewBox="0 0 24 24">
  <defs>
    <path id="location_category_housing-a" d="M21.8103896,10.5450771 L22.9334929,10.5450771 C23.3621384,10.5465816 23.749682,10.2702085 23.9163378,9.84417054 C24.0829935,9.41813254 23.9961496,8.92579833 23.696094,8.59556751 L20.0448527,4.53699774 C19.7387863,4.20000939 19.3220397,4.00656447 18.8847747,3.99851429 L18.2238538,3.99851429 L18.2238538,1.61522639 C18.1960113,1.26720903 17.9260187,1 17.6022184,1 C17.2784181,1 17.0084255,1.26720903 16.980583,1.61522639 L16.980583,3.99851429 L5.17182156,3.99851429 C4.72652081,3.99997286 4.30034441,4.19393115 3.9886345,4.53699774 L0.337393185,8.59556751 C0.037337522,8.92579833 -0.0495063741,9.41813254 0.117149397,9.84417054 C0.283805168,10.2702085 0.671348783,10.5465816 1.09999422,10.5450771 L2.24620668,10.5450771 L2.24620668,21.224999 C2.24778804,21.3731665 2.26641787,21.5205488 2.30166858,21.6637633 L0.619324477,21.6637633 C0.277281013,21.6637633 0,21.9628901 0,22.3318816 C0,22.7008732 0.277281013,23 0.619324477,23 L23.2986171,23 C23.6406605,23 23.9179415,22.7008732 23.9179415,22.3318816 C23.9179415,21.9628901 23.6406605,21.6637633 23.2986171,21.6637633 L21.7549277,21.6637633 C21.7901784,21.5205488 21.8088082,21.3731665 21.8103896,21.224999 L21.8103896,10.5450771 Z M14.8129474,21.6637633 L9.39154729,21.6637633 L9.39154729,14.7831413 C9.39154729,14.5380648 9.57571155,14.3393911 9.80288967,14.3393911 L14.4247141,14.3393911 C14.6500853,14.342123 14.8314489,14.5399988 14.8314347,14.7831413 L14.8129474,21.6637633 Z M20.5717406,21.224999 C20.5729922,21.3417752 20.5305434,21.4541628 20.4539955,21.5367415 C20.3774476,21.6193203 20.2732679,21.6651134 20.1650201,21.6637633 L16.0515963,21.6637633 L16.0515963,14.7831413 C16.0515999,13.8020255 15.3156864,13.0059026 14.4062268,13.0031543 L9.78440237,13.0031543 C8.87313732,13.0031543 8.13441104,13.8000816 8.13441104,14.7831413 L8.13441104,21.6637633 L3.86846707,21.6637633 C3.76021925,21.6651134 3.65603952,21.6193203 3.57949163,21.5367415 C3.50294375,21.4541628 3.46049497,21.3417752 3.46174652,21.224999 L3.46171961,10.5450771 L20.562497,10.5450771 L20.5717406,21.224999 Z M21.1956869,9.20884034 L1.51595842,9.20884034 L4.8760248,5.46937188 C4.95424485,5.3840704 5.06060106,5.33566634 5.17182156,5.33475102 L18.8847747,5.33475102 C18.9959952,5.33566634 19.1023514,5.3840704 19.1805715,5.46937188 L22.5406379,9.20884034 L21.1956869,9.20884034 Z"/>
  </defs>
  <g fill="none" fill-rule="evenodd">
    <mask id="location_category_housing-b" fill="#fff">
      <use xlink:href="#location_category_housing-a"/>
    </mask>
    <use fill="#000" fill-rule="nonzero" xlink:href="#location_category_housing-a"/>
    <g fill="#FFF" mask="url(#location_category_housing-b)">
      <rect width="24" height="24"/>
    </g>
  </g>
</svg>
