<svg xmlns="http://www.w3.org/2000/svg" xmlns:xlink="http://www.w3.org/1999/xlink" width="24" height="24" viewBox="0 0 24 24">
  <defs>
    <path id="location_pin-a" d="M16.4792388,15.0508005 C20.3044983,15.605414 24,16.9784861 24,19.3746316 C24,22.4169286 17.9792388,24 12.0103806,24 C6.04152249,24 1.77635684e-15,22.4061594 1.77635684e-15,19.3638624 C1.77635684e-15,16.9623323 3.73702422,15.5677218 7.58823529,15.0292621 C5.76124567,12.0408111 4.90484429,9.66620397 4.86851211,7.63621107 C4.79837084,4.93279896 6.14850676,2.40301154 8.39429019,1.02986209 C10.6400736,-0.343287363 13.4274004,-0.343287363 15.6731839,1.02986209 C17.9189673,2.40301154 19.2691032,4.93279896 19.1989619,7.63621107 C19.1678201,9.66620397 18.3062284,12.0515802 16.4792388,15.0508005 Z M6.26470588,7.63621107 C6.29584775,9.89235703 7.64532872,12.5900399 9.32179931,15.1531079 C9.35535543,15.1917948 9.38332802,15.2353243 9.40484429,15.2823382 C10.2197232,16.52618 11.0968858,17.7323296 11.9429066,18.8415565 C11.967267,18.8772174 12.0049189,18.9006542 12.0467128,18.9061717 C12.091484,18.9010474 12.1325076,18.8778333 12.1608997,18.8415565 C13.0017301,17.7323296 13.884083,16.52618 14.6937716,15.2823382 C16.3910035,12.681578 17.7716263,9.9354338 17.8079585,7.63621107 C17.8079585,5.4970221 16.7078928,3.52032995 14.9221454,2.45073545 C13.136398,1.38114095 10.9362664,1.38114095 9.150519,2.45073545 C7.36477159,3.52032995 6.26470584,5.4970221 6.26470588,7.63621107 Z M12.0103806,22.5676973 C18.5916955,22.5676973 22.6297578,20.7100115 22.6297578,19.3854008 C22.6297578,18.4754039 20.4446367,16.9731015 15.6228374,16.4023343 C14.932526,17.4307922 14.1384083,18.5561729 13.2249135,19.7515533 C12.9277856,20.1416545 12.4740524,20.3680755 11.9948097,20.3653973 L11.9584775,20.3653973 C11.5103788,20.3410278 11.0941964,20.1172971 10.816609,19.7515533 C9.9083045,18.5561729 9.11937716,17.446946 8.42906574,16.4023343 C3.5916955,16.9407939 1.39619377,18.4592501 1.39619377,19.3746316 C1.39619377,20.7046269 5.43425606,22.5676973 12.0103806,22.5676973 Z M12.0103806,8.34159322 C11.6348652,8.34159322 11.3304498,8.02578288 11.3304498,7.63621107 C11.3304498,7.24663927 11.6348652,6.93082892 12.0103806,6.93082892 C12.385896,6.93082892 12.6903114,7.24663927 12.6903114,7.63621107 C12.6903114,8.02578288 12.385896,8.34159322 12.0103806,8.34159322 Z"/>
  </defs>
  <g fill="none" fill-rule="evenodd">
    <mask id="location_pin-b" fill="#fff">
      <use xlink:href="#location_pin-a"/>
    </mask>
    <use fill="#000" fill-rule="nonzero" xlink:href="#location_pin-a"/>
    <g fill="#FFF" mask="url(#location_pin-b)">
      <rect width="24" height="24"/>
    </g>
  </g>
</svg>
