<svg xmlns="http://www.w3.org/2000/svg" xmlns:xlink="http://www.w3.org/1999/xlink" width="24" height="24" viewBox="0 0 24 24">
  <defs>
    <path id="location_category_parking-a" d="M12,0 C18.623593,0.00922293237 23.9907771,5.37640703 24,12 C24,18.627417 18.627417,24 12,24 C5.372583,24 0,18.627417 0,12 C1.98290996e-15,5.372583 5.372583,-1.98290996e-15 12,0 Z M12,22.504186 C17.7987514,22.4980335 22.4980335,17.7987514 22.504186,12 C22.504186,6.19869824 17.8013018,1.49581395 12,1.49581395 C6.19869824,1.49581395 1.49581395,6.19869824 1.49581395,12 C1.49581395,17.8013018 6.19869824,22.504186 12,22.504186 Z M12.8093023,5.70418605 C13.8864328,5.6370732 14.9496748,5.9755585 15.7897674,6.65302326 C16.5588454,7.38460813 16.9671058,8.41750697 16.9060465,9.4772093 C16.9784554,10.5289122 16.5675138,11.5562662 15.7897674,12.267907 C14.9558805,12.9219975 13.9120315,13.2494406 12.8539535,13.1888372 L10.6604651,13.1888372 L10.6604651,17.7488372 C10.66514,17.9115756 10.6025462,18.0690485 10.4874253,18.1841695 C10.3723043,18.2992904 10.2148315,18.3618841 10.052093,18.3572093 L9.70604651,18.3572093 C9.54330807,18.3618841 9.38583519,18.2992904 9.27071427,18.1841695 C9.15559335,18.0690485 9.09299958,17.9115756 9.09767442,17.7488372 L9.09767442,6.31255814 C9.09299958,6.1498197 9.15559335,5.99234682 9.27071427,5.8772259 C9.38583519,5.76210497 9.54330807,5.69951121 9.70604651,5.70418605 L12.8093023,5.70418605 Z M12.775814,11.704186 C14.5339535,11.704186 15.3153488,11.0232558 15.3153488,9.49395349 C15.3632518,8.86422847 15.1422052,8.24367569 14.7069767,7.78604651 C14.1647991,7.34456123 13.4725645,7.1304887 12.775814,7.18883721 L10.6604651,7.18883721 L10.6604651,11.704186 L12.775814,11.704186 Z"/>
  </defs>
  <g fill="none" fill-rule="evenodd">
    <mask id="location_category_parking-b" fill="#fff">
      <use xlink:href="#location_category_parking-a"/>
    </mask>
    <use fill="#000" fill-rule="nonzero" xlink:href="#location_category_parking-a"/>
    <g fill="#FFF" mask="url(#location_category_parking-b)">
      <rect width="24" height="24"/>
    </g>
  </g>
</svg>
