<svg xmlns="http://www.w3.org/2000/svg" xmlns:xlink="http://www.w3.org/1999/xlink" width="24" height="24" viewBox="0 0 24 24">
  <defs>
    <path id="location_category_bus-a" d="M19.9304813,1 C20.4368043,1.00144688 20.9218268,1.20831696 21.2788483,1.57510074 C21.6358699,1.94188453 21.8356449,2.43853668 21.8342246,2.95579836 L21.8342246,18.1596722 C21.8331658,19.0603513 21.2269106,19.8424538 20.368984,20.0499131 L20.368984,20.8584554 C20.368984,22.0411978 19.4304579,23 18.2727273,23 C17.1149967,23 16.1764706,22.0411978 16.1764706,20.8584554 L16.1764706,20.1100074 L7.86096257,20.1100074 L7.86096257,20.8584554 C7.86096257,22.0411978 6.92243648,23 5.76470588,23 C4.60697528,23 3.6684492,22.0411978 3.6684492,20.8584554 L3.6684492,20.0663025 C2.78454121,19.8776696 2.15088799,19.0821674 2.14973262,18.1596722 L2.14973262,2.95579836 C2.14831175,2.43759139 2.3488201,1.94011135 2.70699822,1.57317012 C3.06517633,1.20622889 3.55157325,0.999997967 4.05882353,1 L19.9304813,1 Z M3.5828877,6.53414452 L3.5828877,11.888006 L11.2941176,11.888006 L11.2941176,6.53414452 L3.5828877,6.53414452 Z M6.42245989,20.8584554 L6.42245989,20.1100074 L5.10160428,20.1100074 L5.10160428,20.8584554 C5.13239065,21.2076243 5.41886349,21.4751094 5.76203209,21.4751094 C6.10520069,21.4751094 6.39167352,21.2076243 6.42245989,20.8584554 Z M18.9358289,20.8584554 L18.9358289,20.1100074 L17.6096257,20.1100074 L17.6096257,20.8584554 C17.6096257,21.2325882 17.9065064,21.5358828 18.2727273,21.5358828 C18.6389482,21.5358828 18.9358289,21.2325882 18.9358289,20.8584554 Z M20.4010695,18.1596722 L20.4010695,13.3357338 L3.5828877,13.3357338 L3.5828877,18.1596722 C3.5828877,18.428203 3.79597143,18.6458902 4.05882353,18.6458902 L19.9304813,18.6458902 C20.1912426,18.6428969 20.401086,18.4260839 20.4010695,18.1596722 Z M20.4010695,11.888006 L20.4010695,6.53414452 L12.7272727,6.53414452 L12.7272727,11.888006 L20.4010695,11.888006 Z M20.4010695,5.06456419 L20.4010695,2.95579836 C20.4010695,2.69028476 20.19038,2.47504346 19.9304813,2.47504346 L4.05882353,2.47504346 C3.93309181,2.47358373 3.81201745,2.5235894 3.72260506,2.61390713 C3.63319267,2.70422486 3.58287958,2.82734202 3.5828877,2.95579836 L3.5828877,5.06456419 L20.4010695,5.06456419 Z M14.6470588,3.0322821 L14.657754,3.0322821 C15.0535088,3.03228212 15.3743315,3.36003591 15.3743315,3.7643407 C15.3743315,4.16864549 15.0535088,4.49639928 14.657754,4.4963993 L9.37967914,4.4963993 C8.9839243,4.4963993 8.6631016,4.1686455 8.6631016,3.7643407 C8.6631016,3.3600359 8.9839243,3.0322821 9.37967914,3.0322821 L14.6470588,3.0322821 Z M9.37967914,15.592004 C8.9839243,15.592004 8.6631016,15.2642502 8.6631016,14.8599454 C8.6631016,14.4556406 8.9839243,14.1278868 9.37967914,14.1278868 L14.657754,14.1278868 C15.0535089,14.1278868 15.3743316,14.4556406 15.3743316,14.8599454 C15.3743316,15.2642502 15.0535089,15.592004 14.657754,15.592004 L9.37967914,15.592004 Z M9.37967914,18.148746 C9.00641979,18.1158354 8.71982988,17.7966967 8.71982988,17.4139558 C8.71982988,17.0312149 9.00641979,16.7120762 9.37967914,16.6791656 L14.657754,16.6791656 C15.0310134,16.7120762 15.3176033,17.0312149 15.3176033,17.4139558 C15.3176033,17.7966967 15.0310134,18.1158354 14.657754,18.148746 L9.37967914,18.148746 Z M23.2834225,7.74149491 C23.6791773,7.74149491 24,8.06924871 24,8.47355351 L24,11.2815992 C24,11.5431386 23.8634211,11.7848109 23.6417112,11.9155806 C23.4200014,12.0463503 23.1468435,12.0463503 22.9251337,11.9155806 C22.7034238,11.7848109 22.5668449,11.5431386 22.5668449,11.2815992 L22.5668449,8.47355351 C22.5668449,8.2793995 22.6423413,8.09319753 22.7767256,7.95590991 C22.91111,7.81862229 23.0933743,7.74149491 23.2834225,7.74149491 Z M0.721925134,7.74149491 C1.11767998,7.74149491 1.43850267,8.06924871 1.43850267,8.47355351 L1.43850267,11.2815992 C1.40628807,11.6629225 1.09389827,11.955704 0.719251337,11.955704 C0.344604405,11.955704 0.0322146041,11.6629225 -1.11022302e-15,11.2815992 L-1.11022302e-15,8.47355351 C0.00293799377,8.06836661 0.325295955,7.74148379 0.721925134,7.74149491 Z M5.72192513,17.0561212 C5.33503047,17.0561212 5.02139037,16.7357052 5.02139037,16.3404519 C5.02139037,15.9451987 5.33503047,15.6247827 5.72192513,15.6247827 C6.1088198,15.6247827 6.42245989,15.9451987 6.42245989,16.3404519 C6.42245989,16.7357052 6.1088198,17.0561212 5.72192513,17.0561212 Z M18.3101604,17.0561212 C17.9232658,17.0561212 17.6096257,16.7357052 17.6096257,16.3404519 C17.6096257,15.9451987 17.9232658,15.6247827 18.3101604,15.6247827 C18.6970551,15.6247827 19.0106952,15.9451987 19.0106952,16.3404519 C19.0106952,16.7357052 18.6970551,17.0561212 18.3101604,17.0561212 Z"/>
  </defs>
  <g fill="none" fill-rule="evenodd">
    <mask id="location_category_bus-b" fill="#000">
      <use xlink:href="#location_category_bus-a"/>
    </mask>
    <use fill="#000" fill-rule="nonzero" xlink:href="#location_category_bus-a"/>
    <g fill="#000" mask="url(#location_category_bus-b)">
      <rect width="24" height="24"/>
    </g>
  </g>
</svg>
