<svg id="Layer_1" data-name="Layer 1" xmlns="http://www.w3.org/2000/svg" viewBox="0 0 540 64"><defs><style>.cls-1{fill:#0062e1;}.cls-2,.cls-4{fill:none;}.cls-3{fill:#212121;}.cls-4{stroke:#212121;stroke-miterlimit:10;}</style></defs><title>Full-CampusCloud</title><path class="cls-1" d="M30.33,44,13.71,36.42a.5.5,0,0,0-.71.45v3.9a.51.51,0,0,0,.29.46l15.38,7a8,8,0,0,0,6.66,0l15.38-7a.51.51,0,0,0,.29-.46v-3.9a.5.5,0,0,0-.71-.45L33.67,44A4.05,4.05,0,0,1,30.33,44Z"/><path class="cls-1" d="M55.71,27.67l-4.89-2.24L32.21,34a.45.45,0,0,1-.42,0L20.41,28.74a.25.25,0,0,1,0-.46L23,27.1a.51.51,0,0,1,.42,0L31.79,31a.45.45,0,0,0,.42,0l15.34-7L32.83,17.18a2,2,0,0,0-1.66,0L8.29,27.67a.49.49,0,0,0-.29.45v2.36a.49.49,0,0,0,.29.45L31.17,41.42a2,2,0,0,0,1.66,0L55.71,30.93a.49.49,0,0,0,.29-.45V28.12A.49.49,0,0,0,55.71,27.67Z"/><rect class="cls-2" width="64" height="64"/><path class="cls-3" d="M97.32,48H88.6L81.88,35.76H79.51V48H72V16H83.5c3.57,0,6.36.74,8.44,2.27a8.86,8.86,0,0,1,3.53,7.33c0,6.08-3.9,8.44-6.26,9.18Zm-11-25.37c-.92-.69-2.13-.83-3.85-.83h-3V30h3a6.12,6.12,0,0,0,3.85-.89,3.56,3.56,0,0,0,1.63-3.24A3.64,3.64,0,0,0,86.28,22.63Z"/><path class="cls-3" d="M121.4,48H100.25V16H121v6H107.71v6.54h12.53v6H107.71v7.42H121.4Z"/><path class="cls-3" d="M155.22,48h-8.15l-2.27-6.44H133.4L131.14,48h-7.78l12-32h7.78ZM143.08,35.73l-4-11.49-4,11.49Z"/><path class="cls-3" d="M181.37,44.2C178.72,46.42,174.6,48,169,48H158.18V16H169c5.57,0,9.69,1.58,12.34,3.85s5.19,5.94,5.19,12.15S184.06,41.92,181.37,44.2Zm-5.24-19.71a9.62,9.62,0,0,0-6.68-2.28h-3.81V41.65h3.81a9.44,9.44,0,0,0,6.68-2.32C177.47,38.08,179,35.94,179,32A9.92,9.92,0,0,0,176.13,24.49Z"/><path class="cls-3" d="M215,16,203.85,35.06V48h-7.52V35.06L185.2,16h8.35l6.54,12.75L206.63,16Z"/><rect class="cls-2" x="56" width="376" height="64"/><line class="cls-4" x1="234.5" y1="16" x2="234.5" y2="49"/><path d="M278.83,43.8a13.85,13.85,0,0,1-10.71,4.49c-8.4,0-14.62-6.13-14.62-14.95s6.43-15,14.62-15a14.37,14.37,0,0,1,10.5,4.2l-1.47,1.68c-1.47-1.89-4.83-3.82-9-3.82-7.14,0-12.19,5.25-12.19,12.81s5.05,12.9,12.19,12.9a12.16,12.16,0,0,0,9.24-3.82Z"/><path d="M296.68,47.79h-2.23V45.06a8.46,8.46,0,0,1-6.59,3.15c-3.79,0-6.52-2.52-6.52-5.88s2.52-5.67,7.78-5.88l5.33-.21V35.19c0-3.57-2.39-5.34-5.46-5.34a10.65,10.65,0,0,0-5.76,1.68l-.84-1.59a11.93,11.93,0,0,1,6.52-2c2.94,0,4.7.93,5.88,2.19s1.89,2.73,1.89,6.09Zm-2.23-9.87-5.54.33c-4.08.21-5.38,2-5.38,4.08s1.59,4,4.75,4a7.44,7.44,0,0,0,6.17-3.57Z"/><path d="M329.1,47.79h-2.18V35.94c0-2.43-.42-6.09-4.2-6.09s-5.8,3.66-5.8,7.77V47.79h-2.18V35.94c0-3.27-.84-6.09-4.2-6.09-3.79,0-5.8,3.66-5.8,7.77V47.79h-2.19V28.3h2.19v3.61A6.52,6.52,0,0,1,310.62,28a5.63,5.63,0,0,1,5.8,4.08A7,7,0,0,1,322.59,28c5.38,0,6.51,4.08,6.51,8Z"/><path d="M344.93,48.21a8.33,8.33,0,0,1-7.35-4.08V55.77H335.4V28.3h2.18v3.78A8.2,8.2,0,0,1,344.85,28c6,0,9.66,4.41,9.66,10.17S350.73,48.21,344.93,48.21Zm-.08-18.36c-4.75,0-7.35,3.7-7.35,8.28s2.6,8.1,7.35,8.1,7.35-3.57,7.35-8.1S349.55,29.85,344.85,29.85Z"/><path d="M374.33,47.79h-2.18V44.64a6.9,6.9,0,0,1-6.3,3.57c-2.73,0-4.24-.88-5.25-2.19s-1.47-3.4-1.47-6.13V28.3h2.18V40.23c0,2.94.55,6.09,4.83,6.09s6-3.78,6-7.56V28.3h2.18Z"/><path d="M385.63,48.21a7.89,7.89,0,0,1-7.1-3.78l1.55-1.26a6.67,6.67,0,0,0,5.63,3.06c2.44,0,4.58-1.17,4.58-3.69s-3.48-3.4-5.16-4-5.34-1.85-5.34-5.38S382.86,28,385.71,28a7.49,7.49,0,0,1,6.14,2.73L390.5,32a6,6,0,0,0-4.87-2.23c-2.18,0-3.74,1.09-3.74,3.11s2.1,2.9,4.5,3.74,6.09,2.1,6.09,5.79S389.24,48.21,385.63,48.21Z"/><path d="M429.36,43.8a13.89,13.89,0,0,1-10.72,4.49c-8.4,0-14.61-6.13-14.61-14.95s6.42-15,14.61-15a14.41,14.41,0,0,1,10.51,4.2l-1.48,1.68c-1.46-1.89-4.83-3.82-9-3.82-7.14,0-12.18,5.25-12.18,12.81s5,12.9,12.18,12.9a12.18,12.18,0,0,0,9.25-3.82Z"/><path d="M436.16,47.79H434v-29h2.19Z"/><path d="M451.15,48.21a9.8,9.8,0,0,1-10-10.08,10,10,0,1,1,20,0A9.81,9.81,0,0,1,451.15,48.21Zm0-18.36c-4.7,0-7.65,3.66-7.65,8.19s2.95,8.19,7.65,8.19,7.69-3.69,7.69-8.19S455.9,29.85,451.15,29.85Z"/><path d="M481,47.79h-2.18V44.64a6.9,6.9,0,0,1-6.3,3.57c-2.74,0-4.25-.88-5.26-2.19s-1.47-3.4-1.47-6.13V28.3H468V40.23c0,2.94.54,6.09,4.83,6.09s6-3.78,6-7.56V28.3H481Z"/><path d="M495.38,28a8.38,8.38,0,0,1,7.3,4V18.8h2.23v29h-2.23V44.18a8,8,0,0,1-7.22,4c-5.88,0-9.66-4.41-9.66-10.17S489.58,28,495.38,28Zm.08,18.27c4.75,0,7.35-3.69,7.35-8.19s-2.6-8.19-7.35-8.19-7.35,3.66-7.35,8.19S490.75,46.23,495.46,46.23Z"/></svg>