<?xml version="1.0" encoding="utf-8"?>
<!-- Generator: Adobe Illustrator 21.1.0, SVG Export Plug-In . SVG Version: 6.00 Build 0)  -->
<svg version="1.1" id="Layer_1" xmlns="http://www.w3.org/2000/svg" xmlns:xlink="http://www.w3.org/1999/xlink" x="0px" y="0px"
	 viewBox="0 0 288 64" style="enable-background:new 0 0 288 64;" xml:space="preserve">
<style type="text/css">
	.st0{fill:#FFFFFF;}
	.st1{fill:#002C5A;}
	.st2{fill:#F5F5F5;}
	.st3{fill:#FF9D22;}
	.st4{fill:#D4E14E;}
	.st5{fill:#FFC500;}
	.st6{opacity:0.64;}
</style>
<g>
	<g>
		<path class="st1" d="M64,5c0-2.8-2.2-5-5-5H5C2.2,0,0,2.2,0,5v54c0,2.8,2.2,5,5,5h54c2.8,0,5-2.2,5-5V5z"/>
	</g>
	<g>
		<path class="st2" d="M56,49c0-0.5-0.5-1-1-1H9c-0.6,0-1,0.5-1,1v6c0,0.5,0.4,1,1,1h46c0.5,0,1-0.5,1-1V49z"/>
	</g>
	<g>
		<path class="st2" d="M56,21c0-0.5-0.4-1.2-0.9-1.4L32.9,8.4c-0.5-0.2-1.3-0.2-1.8,0L8.9,19.6C8.4,19.8,8,20.5,8,21v2
			c0,0.5,0.4,1,1,1h46c0.5,0,1-0.5,1-1V21z"/>
	</g>
	<g>
		<path class="st3" d="M24,37c0-0.5-0.5-1-1-1h-6c-0.5,0-1,0.5-1,1v6c0,0.5,0.5,1,1,1h6c0.5,0,1-0.5,1-1V37z"/>
	</g>
	<g>
		<path class="st4" d="M48,29c0-0.5-0.5-1-1-1h-6c-0.5,0-1,0.5-1,1v14c0,0.5,0.5,1,1,1h6c0.5,0,1-0.5,1-1V29z"/>
	</g>
	<g>
		<path class="st5" d="M36,33c0-0.5-0.5-1-1-1h-6c-0.5,0-1,0.5-1,1v10c0,0.5,0.5,1,1,1h6c0.5,0,1-0.5,1-1V33z"/>
	</g>
	<g>
		<g>
			<path class="st1" d="M78.5,22v3.5c0,0.6,0.2,1.1,0.6,1.4c0.4,0.3,1,0.5,1.7,0.5c0.7,0,1.2-0.1,1.5-0.3s0.6-0.5,0.8-0.9
				s0.5-0.6,0.8-0.6h5c0.1,0,0.3,0,0.4,0.1s0.2,0.2,0.2,0.4c0,1.4-0.7,2.7-2,3.9c-0.7,0.6-1.6,1-2.7,1.4c-1.1,0.4-2.5,0.5-4,0.5
				s-2.9-0.2-4.2-0.7c-1.3-0.5-2.3-1.2-3.1-2.3c-0.8-1-1.2-2.3-1.2-3.9v-2.7c0-1.5,0.4-2.8,1.2-3.9c1.5-2,4-2.9,7.4-2.9
				c1.4,0,2.7,0.2,3.8,0.5c1.1,0.4,2,0.8,2.7,1.4c1.4,1.2,2,2.5,2,3.9c0,0.1-0.1,0.3-0.2,0.4c-0.1,0.1-0.2,0.1-0.4,0.1h-5
				c-0.3,0-0.6-0.2-0.8-0.6c-0.2-0.4-0.5-0.7-0.8-0.9s-0.8-0.3-1.5-0.3c-0.7,0-1.2,0.2-1.7,0.5C78.7,20.9,78.5,21.4,78.5,22z"/>
			<path class="st1" d="M96,31.9h-4.4c-0.1,0-0.3,0-0.4-0.2c-0.1-0.1-0.2-0.2-0.2-0.3s0-0.2,0-0.2l5.1-14.8c0.1-0.5,0.5-0.8,1-0.8
				h6.4c0.6,0,0.9,0.3,1,0.8l5.1,14.8c0,0,0,0.1,0,0.2s-0.1,0.2-0.2,0.3c-0.1,0.1-0.2,0.2-0.4,0.2h-4.4c-0.5,0-0.8-0.3-1-0.8
				l-0.6-1.6h-5.7L97,31.1C96.8,31.6,96.5,31.9,96,31.9z M102.1,24.9l-1.6-4.8l-1.6,4.8H102.1z"/>
			<path class="st1" d="M124.1,15.6h4.2c0.2,0,0.3,0.1,0.4,0.2c0.1,0.1,0.2,0.3,0.2,0.4v15c0,0.2-0.1,0.3-0.2,0.4
				c-0.1,0.1-0.3,0.2-0.4,0.2h-4.2c-0.2,0-0.3-0.1-0.4-0.2c-0.1-0.1-0.2-0.3-0.2-0.4v-7.2l-1.7,3.3c-0.1,0.2-0.2,0.3-0.4,0.4
				s-0.4,0.2-0.6,0.2h-1.6c-0.3,0-0.5-0.1-0.6-0.2c-0.2-0.1-0.3-0.3-0.3-0.4l-1.7-3.3v7.2c0,0.2-0.1,0.3-0.2,0.4
				c-0.1,0.1-0.3,0.2-0.4,0.2h-4.2c-0.2,0-0.3-0.1-0.4-0.2c-0.1-0.1-0.2-0.3-0.2-0.4v-15c0-0.2,0.1-0.3,0.2-0.4
				c0.1-0.1,0.3-0.2,0.4-0.2h4.2c0.4,0,0.8,0.2,1,0.6l3,5.6l3-5.6C123.4,15.8,123.7,15.6,124.1,15.6z"/>
			<path class="st1" d="M133.5,15.6h8.7c2.2,0,3.9,0.5,5.2,1.6s1.9,2.4,1.9,4.1s-0.5,3-1.6,4c-1.1,1-2.9,1.5-5.5,1.5h-3.1v4.5
				c0,0.2-0.1,0.3-0.2,0.4c-0.1,0.1-0.3,0.2-0.4,0.2h-5c-0.2,0-0.3-0.1-0.4-0.2c-0.1-0.1-0.2-0.3-0.2-0.4v-15c0-0.2,0.1-0.3,0.2-0.4
				C133.2,15.7,133.3,15.6,133.5,15.6z M139.1,20v2.6h2.9c0.4,0,0.6-0.1,0.9-0.3c0.2-0.2,0.3-0.5,0.3-0.9c0-0.4-0.1-0.7-0.3-1
				c-0.2-0.2-0.5-0.4-0.9-0.4H139.1z"/>
			<path class="st1" d="M165.7,30.2c-1.5,1.1-3.6,1.7-6.2,1.7c-2.6,0-4.7-0.6-6.2-1.7c-1.5-1.1-2.3-2.9-2.3-5.2v-8.8
				c0-0.2,0.1-0.3,0.2-0.4c0.1-0.1,0.3-0.2,0.4-0.2h4.8c0.2,0,0.3,0.1,0.4,0.2c0.1,0.1,0.2,0.3,0.2,0.4v9.1c0,0.6,0.2,1.1,0.6,1.4
				c0.4,0.3,1,0.5,1.7,0.5s1.3-0.2,1.7-0.5c0.4-0.3,0.6-0.8,0.6-1.4v-9.1c0-0.2,0.1-0.3,0.2-0.4c0.1-0.1,0.3-0.2,0.4-0.2h4.8
				c0.2,0,0.3,0.1,0.4,0.2c0.1,0.1,0.2,0.3,0.2,0.4V25C168,27.4,167.2,29.1,165.7,30.2z"/>
			<path class="st1" d="M186,23.3c1.1,0.8,1.6,1.9,1.6,3.5c0,1.5-0.8,2.8-2.3,3.7c-1.6,1-3.6,1.4-6.2,1.4c-2.6,0-4.6-0.5-6-1.4
				c-1.4-0.9-2.1-2.1-2.1-3.5c0-0.3,0.2-0.5,0.5-0.5h4.8c0.3,0,0.6,0.1,0.8,0.3c0.4,0.4,1.2,0.6,2.3,0.6c1.5,0,2.2-0.2,2.2-0.6
				c0-0.3-0.2-0.5-0.7-0.6c-0.5-0.2-1.4-0.3-2.8-0.5c-4.4-0.5-6.6-2.1-6.6-4.9c0-1.5,0.7-2.8,2.1-3.7c1.4-0.9,3.3-1.4,5.6-1.4
				s4.3,0.5,5.7,1.5c1.5,1,2.2,2.1,2.2,3.2c0,0.2-0.1,0.3-0.2,0.4c-0.1,0.1-0.2,0.1-0.4,0.1h-5c-0.3,0-0.5-0.1-0.7-0.3
				c-0.4-0.3-0.9-0.5-1.7-0.5c-1,0-1.6,0.2-1.6,0.6c0,0.2,0.2,0.4,0.6,0.5c0.4,0.1,1.2,0.3,2.4,0.4C183.1,22,184.9,22.5,186,23.3z"
				/>
			<path class="st1" d="M196.8,22v3.5c0,0.6,0.2,1.1,0.6,1.4c0.4,0.3,1,0.5,1.7,0.5c0.7,0,1.2-0.1,1.5-0.3s0.6-0.5,0.8-0.9
				s0.5-0.6,0.8-0.6h5c0.1,0,0.3,0,0.4,0.1s0.2,0.2,0.2,0.4c0,1.4-0.7,2.7-2,3.9c-0.7,0.6-1.6,1-2.7,1.4c-1.1,0.4-2.5,0.5-4,0.5
				s-2.9-0.2-4.2-0.7c-1.3-0.5-2.3-1.2-3.1-2.3c-0.8-1-1.2-2.3-1.2-3.9v-2.7c0-1.5,0.4-2.8,1.2-3.9c1.5-2,4-2.9,7.4-2.9
				c1.4,0,2.7,0.2,3.8,0.5c1.1,0.4,2,0.8,2.7,1.4c1.4,1.2,2,2.5,2,3.9c0,0.1-0.1,0.3-0.2,0.4c-0.1,0.1-0.2,0.1-0.4,0.1h-5
				c-0.3,0-0.6-0.2-0.8-0.6c-0.2-0.4-0.5-0.7-0.8-0.9s-0.8-0.3-1.5-0.3c-0.7,0-1.2,0.2-1.7,0.5C197.1,20.9,196.8,21.4,196.8,22z"/>
			<path class="st1" d="M218.4,27.1h7.9c0.2,0,0.3,0.1,0.4,0.2c0.1,0.1,0.2,0.3,0.2,0.4v3.5c0,0.2-0.1,0.3-0.2,0.4
				c-0.1,0.1-0.3,0.2-0.4,0.2h-13.5c-0.2,0-0.3-0.1-0.4-0.2c-0.1-0.1-0.2-0.3-0.2-0.4v-15c0-0.2,0.1-0.3,0.2-0.4
				c0.1-0.1,0.3-0.2,0.4-0.2h5c0.2,0,0.3,0.1,0.4,0.2c0.1,0.1,0.2,0.3,0.2,0.4V27.1z"/>
			<path class="st1" d="M247,22.4v2.8c0,1.6-0.4,2.9-1.2,3.9c-0.8,1-1.8,1.8-3,2.2c-1.3,0.4-2.7,0.7-4.4,0.7c-1.7,0-3.2-0.2-4.4-0.7
				c-1.3-0.4-2.3-1.2-3-2.2c-0.8-1-1.2-2.4-1.2-3.9v-2.7c0-2.3,0.8-4,2.4-5.1c1.6-1.1,3.7-1.7,6.2-1.7c2.6,0,4.6,0.6,6.2,1.7
				C246.2,18.4,247,20.1,247,22.4z M236.1,22v3.5c0,0.6,0.2,1.1,0.6,1.4c0.4,0.3,1,0.5,1.7,0.5s1.3-0.2,1.7-0.5
				c0.4-0.3,0.6-0.8,0.6-1.4V22c0-0.6-0.2-1.1-0.6-1.4c-0.4-0.3-1-0.5-1.7-0.5s-1.3,0.2-1.7,0.5C236.3,20.9,236.1,21.4,236.1,22z"/>
			<path class="st1" d="M264.3,30.2c-1.5,1.1-3.6,1.7-6.2,1.7c-2.6,0-4.7-0.6-6.2-1.7c-1.5-1.1-2.3-2.9-2.3-5.2v-8.8
				c0-0.2,0.1-0.3,0.2-0.4c0.1-0.1,0.3-0.2,0.4-0.2h4.8c0.2,0,0.3,0.1,0.4,0.2c0.1,0.1,0.2,0.3,0.2,0.4v9.1c0,0.6,0.2,1.1,0.6,1.4
				c0.4,0.3,1,0.5,1.7,0.5s1.3-0.2,1.7-0.5c0.4-0.3,0.6-0.8,0.6-1.4v-9.1c0-0.2,0.1-0.3,0.2-0.4c0.1-0.1,0.3-0.2,0.4-0.2h4.8
				c0.2,0,0.3,0.1,0.4,0.2c0.1,0.1,0.2,0.3,0.2,0.4V25C266.6,27.4,265.8,29.1,264.3,30.2z"/>
			<path class="st1" d="M270.4,15.6h7.4c1.7,0,3.2,0.2,4.4,0.7c1.3,0.4,2.3,1.2,3,2.3c0.8,1.1,1.2,2.4,1.2,4v2.4
				c0,2.5-0.8,4.3-2.5,5.4c-1.5,1-3.6,1.5-6.1,1.5h-7.4c-0.2,0-0.3-0.1-0.4-0.2c-0.1-0.1-0.2-0.3-0.2-0.4v-15c0-0.2,0.1-0.3,0.2-0.4
				C270.1,15.7,270.2,15.6,270.4,15.6z M275.8,20.2v7.2h2.1c0.7,0,1.3-0.2,1.7-0.5c0.4-0.3,0.6-0.8,0.6-1.5v-3.2
				c0-0.6-0.2-1.1-0.6-1.5c-0.4-0.3-1-0.5-1.7-0.5H275.8z"/>
		</g>
		<g class="st6">
			<path class="st1" d="M82.4,44.8c0,2.1-1.4,3.2-4.1,3.2h-5.9c-0.1,0-0.2,0-0.3-0.1c-0.1-0.1-0.1-0.2-0.1-0.3v-9.3
				c0-0.1,0-0.2,0.1-0.3c0.1-0.1,0.2-0.1,0.3-0.1h5.8c1.4,0,2.4,0.2,3,0.7c0.6,0.5,1,1.2,1,2.2v0c0,0.5-0.1,0.9-0.4,1.2
				c-0.2,0.3-0.5,0.5-0.8,0.6c0.4,0.1,0.7,0.4,1,0.8C82.3,43.9,82.4,44.3,82.4,44.8z M78.1,41.5c0.1-0.1,0.2-0.3,0.2-0.5
				s-0.1-0.3-0.2-0.4c-0.1-0.1-0.2-0.2-0.4-0.2h-1.9v1.3h1.9C77.9,41.7,78,41.6,78.1,41.5z M75.8,44.1v1.4h2.1
				c0.2,0,0.4-0.1,0.5-0.2c0.1-0.1,0.2-0.3,0.2-0.5v0c0-0.2-0.1-0.3-0.2-0.5c-0.1-0.1-0.3-0.2-0.5-0.2H75.8z"/>
			<path class="st1" d="M91.4,37.9h3c0.1,0,0.2,0,0.2,0.1c0.1,0.1,0.1,0.1,0.1,0.2c0,0.1,0,0.1,0,0.2l-3.6,6v3.2
				c0,0.1,0,0.2-0.1,0.3C90.9,48,90.8,48,90.7,48h-3.1c-0.1,0-0.2,0-0.3-0.1c-0.1-0.1-0.1-0.2-0.1-0.3v-3.2l-3.6-6
				c0-0.1,0-0.1,0-0.2c0-0.1,0-0.1,0.1-0.2s0.1-0.1,0.2-0.1h3c0.3,0,0.5,0.1,0.6,0.3l1.6,2.9l1.7-2.8C91,38,91.2,37.9,91.4,37.9z"/>
			<path class="st1" d="M114.7,42.1v1.7c0,1-0.2,1.8-0.7,2.4c-0.5,0.6-1.1,1.1-1.9,1.4c-0.8,0.3-1.7,0.4-2.8,0.4
				c-1.1,0-2-0.1-2.8-0.4c-0.8-0.3-1.4-0.7-1.9-1.4c-0.5-0.6-0.7-1.5-0.7-2.4v-1.7c0-1.4,0.5-2.5,1.5-3.2c1-0.7,2.3-1.1,3.9-1.1
				s2.9,0.4,3.9,1.1C114.2,39.7,114.7,40.7,114.7,42.1z M107.9,41.9v2.2c0,0.4,0.1,0.7,0.4,0.9c0.3,0.2,0.6,0.3,1.1,0.3
				c0.5,0,0.8-0.1,1.1-0.3c0.3-0.2,0.4-0.5,0.4-0.9v-2.2c0-0.4-0.1-0.7-0.4-0.9c-0.3-0.2-0.6-0.3-1.1-0.3c-0.5,0-0.8,0.1-1.1,0.3
				C108,41.2,107.9,41.5,107.9,41.9z"/>
			<path class="st1" d="M126.9,42.1v1.7c0,1-0.2,1.8-0.7,2.4c-0.5,0.6-1.1,1.1-1.9,1.4c-0.8,0.3-1.7,0.4-2.8,0.4
				c-1.1,0-2-0.1-2.8-0.4c-0.8-0.3-1.4-0.7-1.9-1.4c-0.5-0.6-0.7-1.5-0.7-2.4v-1.7c0-1.4,0.5-2.5,1.5-3.2c1-0.7,2.3-1.1,3.9-1.1
				s2.9,0.4,3.9,1.1C126.4,39.7,126.9,40.7,126.9,42.1z M120.1,41.9v2.2c0,0.4,0.1,0.7,0.4,0.9c0.3,0.2,0.6,0.3,1.1,0.3
				c0.5,0,0.8-0.1,1.1-0.3c0.3-0.2,0.4-0.5,0.4-0.9v-2.2c0-0.4-0.1-0.7-0.4-0.9c-0.3-0.2-0.6-0.3-1.1-0.3c-0.5,0-0.8,0.1-1.1,0.3
				C120.2,41.2,120.1,41.5,120.1,41.9z"/>
			<path class="st1" d="M135.6,37.9h3c0.1,0,0.2,0,0.3,0.1c0.1,0.1,0.1,0.2,0.1,0.3v9.3c0,0.1,0,0.2-0.1,0.3
				c-0.1,0.1-0.2,0.1-0.3,0.1h-3c-0.1,0-0.2,0-0.3-0.1c-0.1-0.1-0.1-0.2-0.1-0.3v-3.1h-2.9v3.1c0,0.1,0,0.2-0.1,0.3
				c-0.1,0.1-0.2,0.1-0.3,0.1h-3c-0.1,0-0.2,0-0.3-0.1c-0.1-0.1-0.1-0.2-0.1-0.3v-9.3c0-0.1,0-0.2,0.1-0.3c0.1-0.1,0.2-0.1,0.3-0.1
				h3c0.1,0,0.2,0,0.3,0.1c0.1,0.1,0.1,0.2,0.1,0.3v3h2.9v-3c0-0.1,0-0.2,0.1-0.3C135.4,38,135.5,37.9,135.6,37.9z"/>
			<path class="st1" d="M145.8,45h4.9c0.1,0,0.2,0,0.3,0.1c0.1,0.1,0.1,0.2,0.1,0.3v2.2c0,0.1,0,0.2-0.1,0.3
				c-0.1,0.1-0.2,0.1-0.3,0.1h-8.4c-0.1,0-0.2,0-0.3-0.1c-0.1-0.1-0.1-0.2-0.1-0.3v-9.3c0-0.1,0-0.2,0.1-0.3
				c0.1-0.1,0.2-0.1,0.3-0.1h3.1c0.1,0,0.2,0,0.3,0.1c0.1,0.1,0.1,0.2,0.1,0.3V45z"/>
			<path class="st1" d="M155.6,48h-2.7c-0.1,0-0.2,0-0.2-0.1c-0.1-0.1-0.1-0.1-0.1-0.2s0-0.1,0-0.1l3.1-9.2c0.1-0.3,0.3-0.5,0.6-0.5
				h4c0.3,0,0.6,0.2,0.6,0.5l3.1,9.2c0,0,0,0.1,0,0.1s0,0.1-0.1,0.2c-0.1,0.1-0.1,0.1-0.2,0.1h-2.7c-0.3,0-0.5-0.2-0.6-0.5l-0.4-1
				h-3.5l-0.4,1C156.1,47.8,155.9,48,155.6,48z M159.3,43.7l-1-3l-1,3H159.3z"/>
			<path class="st1" d="M170.3,45h4.9c0.1,0,0.2,0,0.3,0.1c0.1,0.1,0.1,0.2,0.1,0.3v2.2c0,0.1,0,0.2-0.1,0.3
				c-0.1,0.1-0.2,0.1-0.3,0.1h-8.4c-0.1,0-0.2,0-0.3-0.1c-0.1-0.1-0.1-0.2-0.1-0.3v-9.3c0-0.1,0-0.2,0.1-0.3
				c0.1-0.1,0.2-0.1,0.3-0.1h3.1c0.1,0,0.2,0,0.3,0.1c0.1,0.1,0.1,0.2,0.1,0.3V45z"/>
			<path class="st1" d="M180,48h-2.7c-0.1,0-0.2,0-0.2-0.1c-0.1-0.1-0.1-0.1-0.1-0.2s0-0.1,0-0.1l3.1-9.2c0.1-0.3,0.3-0.5,0.6-0.5h4
				c0.3,0,0.6,0.2,0.6,0.5l3.1,9.2c0,0,0,0.1,0,0.1s0,0.1-0.1,0.2c-0.1,0.1-0.1,0.1-0.2,0.1h-2.7c-0.3,0-0.5-0.2-0.6-0.5l-0.4-1H181
				l-0.4,1C180.6,47.8,180.3,48,180,48z M183.8,43.7l-1-3l-1,3H183.8z"/>
		</g>
	</g>
</g>
</svg>
