<?xml version="1.0" encoding="utf-8"?>
<!-- Generator: Adobe Illustrator 21.1.0, SVG Export Plug-In . SVG Version: 6.00 Build 0)  -->
<svg version="1.1" id="Layer_1" xmlns="http://www.w3.org/2000/svg" xmlns:xlink="http://www.w3.org/1999/xlink" x="0px" y="0px"
	 viewBox="0 0 40 40" style="enable-background:new 0 0 40 40;" xml:space="preserve">
<style type="text/css">
	.st0{fill:#FFFFFF;}
	.st1{fill:#002C5A;}
	.st2{fill:#F5F5F5;}
	.st3{fill:#FF9D22;}
	.st4{fill:#D4E14E;}
	.st5{fill:#FFC500;}
	.st6{opacity:0.64;}
</style>
<g>
	<g>
		<g>
			<path class="st2" d="M35,30c0-0.5-0.5-1-1-1H6c-0.6,0-1,0.5-1,1v3c0,0.5,0.4,1,1,1h28c0.5,0,1-0.5,1-1V30z"/>
		</g>
		<g>
			<path class="st2" d="M35,13.5c0-0.6-0.4-1.2-0.9-1.4L20.9,5.4c-0.5-0.2-1.3-0.2-1.8,0L5.9,12.1C5.4,12.3,5,12.9,5,13.5V14
				c0,0.6,0.4,1,1,1h28c0.5,0,1-0.4,1-1V13.5z"/>
		</g>
		<g>
			<path class="st3" d="M15,23c0-0.5-0.4-1-1-1h-3c-0.6,0-1,0.5-1,1v3c0,0.5,0.4,1,1,1h3c0.6,0,1-0.5,1-1V23z"/>
		</g>
		<g>
			<path class="st4" d="M30,18c0-0.5-0.5-1-1-1h-3c-0.5,0-1,0.5-1,1v8c0,0.5,0.5,1,1,1h3c0.5,0,1-0.5,1-1V18z"/>
		</g>
		<g>
			<path class="st5" d="M22.5,20.5c0-0.5-0.5-1-1-1h-3c-0.5,0-1,0.5-1,1V26c0,0.5,0.5,1,1,1h3c0.5,0,1-0.5,1-1V20.5z"/>
		</g>
	</g>
</g>
</svg>
