<svg xmlns="http://www.w3.org/2000/svg" xmlns:xlink="http://www.w3.org/1999/xlink" width="24" height="24" viewBox="0 0 24 24">
  <defs>
    <path id="location_category_security-a" d="M8.93799273,8.44193984 C9.34777174,8.44193984 9.67996325,8.76886858 9.67996325,9.17215562 L9.67996325,10.7415746 C9.67996325,11.1448617 9.34777174,11.4717904 8.93799273,11.4717904 C8.52821373,11.4717904 8.19602221,11.1448617 8.19602221,10.7415746 L8.19602221,9.17215562 C8.19602221,8.97849036 8.27419388,8.79275711 8.41334034,8.65581509 C8.55248681,8.51887307 8.74120991,8.44193984 8.93799273,8.44193984 Z M12.0000054,8.44193984 C12.4097844,8.44193984 12.7419759,8.76886858 12.7419759,9.17215562 L12.7419759,10.7415746 C12.7419759,11.1448617 12.4097844,11.4717904 12.0000054,11.4717904 C11.5902264,11.4717904 11.2580349,11.1448617 11.2580349,10.7415746 L11.2580349,9.17215562 C11.2580349,8.76886858 11.5902264,8.44193984 12.0000054,8.44193984 Z M15.0620181,11.466341 C14.6556248,11.4634221 14.3260576,11.1414965 14.3200476,10.7415746 L14.3200476,9.17215562 C14.3200476,8.76886858 14.6522391,8.44193984 15.0620181,8.44193984 C15.4717971,8.44193984 15.8039886,8.76886858 15.8039886,9.17215562 L15.8039886,10.7306759 C15.8039999,11.1348539 15.4726912,11.4633471 15.0620181,11.466341 Z M21.4850465,2.86178342 C21.7927361,2.95910134 22.0010243,3.24123589 21.9999962,3.55930297 L21.9999962,10.1584919 C21.999081,14.9194164 19.5777941,19.3641386 15.5492823,21.9999761 L12.9191629,23.7274269 C12.6467001,23.9052952 12.3269608,24.0000764 12.0000054,23.9998955 C11.6732052,24.0034842 11.3522391,23.9145836 11.0753108,23.743775 L8.44519141,22.0163243 C4.41312339,19.3767082 1.99313681,14.9244184 2.00001462,10.1584919 L2.00001462,3.55930297 C1.99898651,3.24123589 2.20727472,2.95910134 2.51496431,2.86178342 L10.8925867,0.175243268 C11.6117783,-0.0584144226 12.3882325,-0.0584144226 13.1074241,0.175243268 L21.4850465,2.86178342 Z M20.5160552,10.1584919 L20.5160552,4.08789201 L12.6367712,1.564833 C12.2226818,1.43391616 11.7773291,1.43391616 11.3632397,1.564833 L3.48395567,4.08789201 L3.48395567,10.1584919 C3.47950733,14.4359604 5.6517992,18.431438 9.27021834,20.8011144 L11.9003377,22.5231158 C11.9594001,22.5667108 12.0406108,22.5667108 12.0996731,22.5231158 L14.7297925,20.8011144 C18.3474526,18.4307594 20.5195088,14.4357155 20.5160552,10.1584919 Z"/>
  </defs>
  <g fill="none" fill-rule="evenodd">
    <mask id="location_category_security-b" fill="#000">
      <use xlink:href="#location_category_security-a"/>
    </mask>
    <use fill="#000" xlink:href="#location_category_security-a"/>
    <g fill="#FFF" mask="url(#location_category_security-b)">
      <rect width="24" height="24"/>
    </g>
  </g>
</svg>
