<?xml version="1.0" encoding="UTF-8"?>
<svg width="29px" height="28px" viewBox="0 0 29 28" version="1.1" xmlns="http://www.w3.org/2000/svg" xmlns:xlink="http://www.w3.org/1999/xlink">
    <!-- Generator: Sketch 54.1 (76490) - https://sketchapp.com -->
    <title>ic-studio-app</title>
    <desc>Created with Sketch.</desc>
    <g id="Studio/Experiences" stroke="none" stroke-width="1" fill="none" fill-rule="evenodd">
        <g id="experiences/customize/edit-link" transform="translate(-1034.000000, -361.000000)" fill="#D8D8D8">
            <g id="Group-4" transform="translate(745.000000, 346.000000)">
                <g id="Group-8" transform="translate(270.000000, 15.000000)">
                    <path d="M38.6000181,3 C38.5344303,3.32310994 38.5,3.65753416 38.5,4 C38.5,6.76142375 40.7385763,9 43.5,9 C43.8424658,9 44.1768901,8.96556974 44.5,8.89998188 L44.5,24 C44.5,26.209139 42.709139,28 40.5,28 L23.5,28 C21.290861,28 19.5,26.209139 19.5,24 L19.5,7 C19.5,4.790861 21.290861,3 23.5,3 L38.6000181,3 Z M43.5,8 C41.290861,8 39.5,6.209139 39.5,4 C39.5,1.790861 41.290861,0 43.5,0 C45.709139,0 47.5,1.790861 47.5,4 C47.5,6.209139 45.709139,8 43.5,8 Z" id="ic-studio-app"></path>
                </g>
            </g>
        </g>
    </g>
</svg>